PathFileType        4      (X/Y/Z)      C:\Users\pc\Desktop\IMUTRC\Sujet_08\Sujet_08_Tpose.trc         
DataRate	CameraRate	NumFrames	NumMarkers	Units	OrigDataRate	OrigDataStartFrame	OrigNumFrames
60.0	60.0	4	64	mm	60.0	102	163
Frame#	Time	pHipOrigin			pRightASI			pLeftASI			pRightCSI			pLeftCSI			pRightIschialTub			pLeftIschialTub			pSacrum			pL5SpinalProcess			pL3SpinalProcess			pT12SpinalProcess			pIJ			pT4SpinalProcess			pT8SpinalProcess			pPX			pC7SpinalProcess			pTopOfHead			pRightAuricularis			pLeftAuricularis			pBackOfHead			pRightAcromion			pLeftAcromion			pRightArmLatEpicondyle			pRightArmMedEpicondyle			pLeftArmLatEpicondyle			pLeftArmMedEpicondyle			pRightUlnarStyloid			pRightRadialStyloid			pRightOlecranon			pLeftUlnarStyloid			pLeftRadialStyloid			pLeftOlecranon			pRightTopOfHand			pRightPinky			pRightBallHand			pLeftTopOfHand			pLeftPinky			pLeftBallHand			pRightGreaterTrochanter			pRightKneeLatEpicondyle			pRightKneeMedEpicondyle			pRightPatella			pLeftGreaterTrochanter			pLeftKneeLatEpicondyle			pLeftKneeMedEpicondyle			pLeftPatella			pRightTibialTub			pRightLatMalleolus			pRightMedMalleolus			pLeftTibialTub			pLeftLatMalleolus			pLeftMedMalleolus			pRightHeelFoot			pRightFirstMetatarsal			pRightFifthMetatarsal			pRightPivotFoot			pRightHeelCenter			pRightToe			pLeftHeelFoot			pLeftFirstMetatarsal			pLeftFifthMetatarsal			pLeftPivotFoot			pLeftHeelCenter			pLeftToe			
		X1	Y1	Z1	X2	Y2	Z2	X3	Y3	Z3	X4	Y4	Z4	X5	Y5	Z5	X6	Y6	Z6	X7	Y7	Z7	X8	Y8	Z8	X9	Y9	Z9	X10	Y10	Z10	X11	Y11	Z11	X12	Y12	Z12	X13	Y13	Z13	X14	Y14	Z14	X15	Y15	Z15	X16	Y16	Z16	X17	Y17	Z17	X18	Y18	Z18	X19	Y19	Z19	X20	Y20	Z20	X21	Y21	Z21	X22	Y22	Z22	X23	Y23	Z23	X24	Y24	Z24	X25	Y25	Z25	X26	Y26	Z26	X27	Y27	Z27	X28	Y28	Z28	X29	Y29	Z29	X30	Y30	Z30	X31	Y31	Z31	X32	Y32	Z32	X33	Y33	Z33	X34	Y34	Z34	X35	Y35	Z35	X36	Y36	Z36	X37	Y37	Z37	X38	Y38	Z38	X39	Y39	Z39	X40	Y40	Z40	X41	Y41	Z41	X42	Y42	Z42	X43	Y43	Z43	X44	Y44	Z44	X45	Y45	Z45	X46	Y46	Z46	X47	Y47	Z47	X48	Y48	Z48	X49	Y49	Z49	X50	Y50	Z50	X51	Y51	Z51	X52	Y52	Z52	X53	Y53	Z53	X54	Y54	Z54	X55	Y55	Z55	X56	Y56	Z56	X57	Y57	Z57	X58	Y58	Z58	X59	Y59	Z59	X60	Y60	Z60	X61	Y61	Z61	X62	Y62	Z62	X63	Y63	Z63	X64	Y64	Z64	
102	1.683	2467.771748363987	911.4676300000001	-983.9569051379942	2528.2806925418577	1014.87825	-854.4654043337932	2521.1387998937116	1012.1314000000001	-1118.7710247604125	2478.756355292675	1076.11672	-877.1334134815708	2472.8431049587066	1073.69304	-1094.7375919157143	2419.770246587659	852.16811	-927.6619547334989	2416.8619043917665	850.8754700000001	-1036.3605007849217	2400.9706388490454	926.4944900000002	-982.3062430863025	2428.0971294484975	1017.9482500000001	-983.6096839883164	2421.74687340827	1128.7915	-983.1698012970796	2402.226631422528	1228.16264	-981.505199486142	2501.3450763195015	1462.6139	-985.4931261626181	2366.595725903023	1411.87807	-977.6227995324804	2380.0833288295526	1327.21062	-979.2477650586236	2524.675697371141	1347.89275	-988.1781505931932	2358.850479254376	1467.29969	-974.7675258272412	2425.0308549284446	1713.7078	-978.019704634448	2432.2871236639694	1616.59877	-914.3367951923319	2401.8726972471386	1621.60772	-1045.255101626794	2365.709275863329	1623.06193	-967.6285035013819	2397.14077146416	1441.28546	-821.5524126669836	2367.3464752924	1435.79177	-1136.0583616439799	2427.570868444843	1433.04493	-556.5082794881502	2486.532949223465	1416.72544	-564.9669398048275	2377.8480982156416	1409.93912	-1404.4311442372116	2438.5043728427	1399.43648	-1400.0648039565826	2471.6755627685643	1357.42591	-318.64142927601114	2466.7024224295833	1407.67701	-306.86755175079475	2457.006133892096	1400.72911	-569.3517093778178	2332.070996191682	1344.82274	-1635.3409504819329	2322.3546962304567	1395.23542	-1642.6602697499518	2411.3494174145535	1380.20856	-1395.8485866906115	2508.0344441050006	1349.18538	-122.7981761365601	2496.091948824823	1322.36325	-211.39984449675208	2489.430738932711	1356.7796	-280.0246336411954	2322.948014872336	1319.13167	-1829.0088471460513	2330.3756628255655	1300.55007	-1737.923673841241	2339.3294660280367	1341.10643	-1672.7631631591325	2466.233359897783	885.29182	-822.8848941332567	2424.736723975221	490.71569000000005	-823.2008329404803	2427.851539509683	484.4141000000001	-899.7880155494911	2469.4062444296014	485.86832000000004	-862.3099877842925	2457.6177581013944	885.6149800000001	-1145.50171867285	2430.080413243803	489.7462100000001	-1155.3525426872598	2438.3269583539886	481.3441000000001	-1079.2727768583704	2477.1988495188007	485.38358000000005	-1119.4604077678132	2478.2952690292063	450.64407000000006	-858.3868586822474	2392.841408330703	82.89007000000004	-800.7639007932304	2395.9651631177076	77.71954000000005	-860.8407404866394	2485.4001569759234	448.3819700000001	-1124.0411265612174	2390.994707170619	83.37481000000007	-1185.9137263742373	2397.078714332638	76.75007000000006	-1126.0964502158515	2357.7061843531046	0.8079000000000514	-839.3444041819632	2515.716373291453	1.292630000000052	-847.3459169810119	2502.4146780722776	-0.3231599999999526	-773.9506058238578	2530.075368686552	0.32316000000004946	-807.9018425643745	2394.120824726524	3.393160000000051	-832.62462115931	2608.6057162009774	-0.6463199999999514	-793.5908961816615	2356.8464310803347	0.32316000000007067	-1153.9798673085152	2514.9342239891166	-0.32315999999992995	-1144.2424070089464	2502.324667085649	3.5547400000000744	-1217.7834042784584	2529.758188342508	1.6157900000000724	-1183.5536293917544	2393.4581229346836	3.231580000000071	-1160.0845272554907	2608.2829406431015	1.4542100000000733	-1197.1004346788832	
103	1.7	2467.9235838976538	911.4676300000001	-983.9016415232356	2528.225428927099	1015.03983	-854.3135688001266	2521.083536278953	1012.1314000000001	-1118.6191892267461	2478.7010916779163	1076.11672	-876.9815779479042	2472.787841343948	1073.69304	-1094.5857563820477	2419.866818506567	852.16811	-927.4548555850737	2417.013739925433	850.8754700000001	-1036.305237170163	2401.122474382712	926.4944900000002	-982.2509794715439	2428.041865833739	1017.9482500000001	-983.4578484546496	2421.6916097935114	1128.7915	-983.017965763413	2402.074795888861	1228.16264	-981.5604631009007	2501.1932407858344	1462.6139	-985.5483897773768	2366.3886267545977	1411.71649	-977.5262276135724	2379.931493295886	1327.21062	-979.3030286733822	2524.523861837474	1347.89275	-988.2334142079517	2358.6433801059507	1467.13811	-974.6709539083331	2424.230368955962	1713.86938	-978.6549573903325	2432.508174702802	1616.76035	-914.9441279300722	2400.6027587599738	1621.44614	-1045.5453715909948	2365.350353998365	1623.06193	-967.5872011739574	2396.9889453274195	1441.28546	-821.6076728615408	2367.194639758734	1435.79177	-1136.1136252587385	2427.4190329111766	1433.20651	-556.5635431029087	2486.229287553058	1416.72544	-565.0774636141432	2377.6409990672164	1409.61596	-1404.3345723183038	2438.3525373090333	1399.2749	-1400.120067571341	2471.5237272348977	1357.58749	-318.6966928907697	2466.7024224295833	1407.67701	-306.86755175079475	2456.854298358429	1400.89069	-569.4069729925765	2331.767325124349	1344.17643	-1635.45147771145	2321.995761548365	1394.5891	-1642.6189614458024	2411.0457463472203	1380.04699	-1395.9591139201284	2508.0344441050006	1349.34696	-122.7981761365601	2496.091948824823	1322.52483	-211.39984449675208	2489.430738932711	1356.94118	-280.0246336411954	2322.5890895871707	1318.32377	-1828.9675354217006	2330.168567097342	1299.90376	-1737.827111319259	2338.970531345945	1340.46011	-1672.7218548549827	2466.1780962830244	885.4534	-822.7330585995903	2424.3225256783703	490.71569000000005	-823.0076891026642	2427.4373446330337	484.57568000000003	-899.5948811086012	2469.0886214718603	485.86832000000004	-861.9097541949776	2457.562494486636	885.6149800000001	-1145.349883139183	2430.0251496290443	489.7462100000001	-1155.2007071535932	2438.3269583539886	481.3441000000001	-1079.2727768583704	2477.1988495188007	485.38358000000005	-1119.4604077678132	2477.881080129282	450.80565000000007	-858.1937114242298	2392.9379802496114	82.89007000000004	-800.5568016448055	2395.9651631177076	77.71954000000005	-860.8407404866394	2485.4001569759234	448.3819700000001	-1124.0411265612174	2390.994707170619	83.37481000000007	-1185.9137263742373	2397.078714332638	76.75007000000006	-1126.0964502158515	2357.7061843531046	0.9694700000000515	-839.3444041819632	2515.716373291453	1.454210000000052	-847.3459169810119	2502.4146780722776	-0.3231599999999526	-773.9506058238578	2530.075368686552	0.48474000000004946	-807.9018425643745	2394.120824726524	3.393160000000051	-832.62462115931	2608.453880667311	-0.6463199999999514	-793.6461597964201	2356.8464310803347	0.32316000000007067	-1153.9798673085152	2514.9342239891166	-0.32315999999992995	-1144.2424070089464	2502.324667085649	3.5547400000000744	-1217.7834042784584	2529.758188342508	1.7773700000000723	-1183.5536293917544	2393.4581229346836	3.393160000000071	-1160.0845272554907	2608.2829406431015	1.4542100000000733	-1197.1004346788832	
104	1.717	2467.868320282895	911.4676300000001	-983.7498059895688	2528.0183297786734	1015.03983	-854.2169968812185	2521.180108197861	1012.1314000000001	-1118.4120900783207	2478.493992529491	1076.11672	-876.8850060289963	2472.787841343948	1073.69304	-1094.5857563820477	2419.8115548918086	852.16811	-927.3030200514071	2416.9584763106745	850.8754700000001	-1036.1534016364965	2401.067210767954	926.4944900000002	-982.0991439378773	2428.041865833739	1017.9482500000001	-983.4578484546496	2421.6916097935114	1128.7915	-983.017965763413	2402.0195322741024	1228.16264	-981.4086275672341	2500.9448333332602	1462.77548	-985.8107525405604	2366.084955687264	1411.71649	-977.6367548430895	2379.7796577622194	1327.04904	-979.3582922881407	2524.3720263038076	1347.89275	-988.2886778227103	2358.339718435544	1467.13811	-974.7814777176488	2423.5817279140724	1713.86938	-979.234943111257	2432.729229161836	1616.92193	-915.5514700647384	2399.5399100243076	1621.44614	-1045.9322168943045	2364.991419316273	1623.06193	-967.5458928698079	2396.837109793753	1441.28546	-821.6629364762994	2366.8909686914008	1435.63019	-1136.2241524882554	2427.26719737751	1433.20651	-556.6188067176672	2486.0774520193913	1416.72544	-565.1327272289018	2377.3373373968093	1409.2928	-1404.4450961276195	2437.9936026269415	1398.95174	-1400.0787592671916	2471.5237272348977	1357.74907	-318.6966928907697	2466.757686044342	1407.83859	-307.01938728446135	2456.7024628247623	1400.89069	-569.462236607335	2331.560225975924	1343.69169	-1635.354905792542	2321.6920904810318	1393.94279	-1642.7294886753195	2410.838647198795	1379.72383	-1395.8625420012204	2508.186270241741	1349.67012	-122.74291594200295	2496.091948824823	1322.68641	-211.39984449675208	2489.4860025474695	1357.10275	-280.17646917486223	2322.230154905079	1317.51588	-1828.9262271175512	2329.80963241525	1299.09586	-1737.78580301511	2338.6668602786112	1339.81379	-1672.8323820844998	2465.9709971345997	885.4534	-822.6364866806822	2424.1154265299456	490.87727000000007	-822.9111171837562	2427.382081018275	484.57568000000003	-899.4430455749348	2468.881522323435	486.0298900000001	-861.8131822760696	2457.7143300203024	885.6149800000001	-1145.2946195244247	2430.0251496290443	489.7462100000001	-1155.2007071535932	2438.119859205564	481.3441000000001	-1079.1762049394624	2477.143585904042	485.38358000000005	-1119.3085722341466	2477.770552899765	450.80565000000007	-857.8900403568969	2392.882716634853	82.89007000000004	-800.404966111139	2395.9098995029494	77.71954000000005	-860.6889049529731	2485.1930578274983	448.3819700000001	-1123.9445546423094	2391.049970785378	83.37481000000007	-1186.0655619079039	2396.9268787989713	76.75007000000006	-1126.15171383061	2357.650920738346	0.9694700000000515	-839.1925686482964	2515.716373291453	1.454210000000052	-847.3459169810119	2502.4146780722776	-0.3231599999999526	-773.9506058238578	2530.075368686552	0.48474000000004946	-807.9018425643745	2394.120824726524	3.554740000000051	-832.62462115931	2608.453880667311	-0.6463199999999514	-793.6461597964201	2356.8464310803347	0.32316000000007067	-1153.9798673085152	2514.9342239891166	-0.32315999999992995	-1144.2424070089464	2502.324667085649	3.5547400000000744	-1217.7834042784584	2529.758188342508	1.7773700000000723	-1183.5536293917544	2393.4581229346836	3.393160000000071	-1160.0845272554907	2608.2829406431015	1.4542100000000733	-1197.1004346788832	
105	1.733	2467.8130566681366	911.4676300000001	-983.5979704559022	2527.8112306302482	1015.20141	-854.1204249623104	2521.3319437315276	1011.9698200000001	-1118.3568264635621	2478.3421569958246	1076.2783	-876.9402696437547	2472.9396768776146	1073.69304	-1094.530492767289	2419.6044557433834	852.16811	-927.2064481324991	2416.903212695916	850.8754700000001	-1036.0015661028299	2400.9153752342872	926.4944900000002	-982.1544075526359	2427.9866022189804	1017.9482500000001	-983.306012920983	2421.5397742598448	1128.7915	-983.0732293781716	2401.867696740436	1228.16264	-981.4638911819926	2500.641162265927	1462.77548	-985.9212797700775	2365.933120153598	1411.71649	-977.6920184578481	2379.6278222285528	1327.04904	-979.4135559028994	2524.2754543848996	1348.05433	-988.4957769711355	2358.1326192871184	1467.13811	-974.6849057987408	2422.836505556349	1713.86938	-980.022031400808	2432.5913489387785	1617.08351	-916.1175038952554	2398.4218070708093	1621.28456	-1046.1672232437463	2364.5359127152733	1622.90035	-967.7116837140835	2396.5334387264197	1441.28546	-821.7734637058164	2366.532034009309	1435.63019	-1136.1828441841062	2427.1153618438434	1433.20651	-556.6740703324258	2485.980880100483	1416.88702	-565.3398263773266	2377.033666329476	1408.96964	-1404.5556233571365	2437.689940956535	1398.62858	-1400.1892830765073	2471.5789908496563	1357.74907	-318.8485284244363	2466.757686044342	1408.00017	-307.01938728446135	2456.5506272910957	1400.89069	-569.5175002220935	2331.201300690758	1343.04537	-1635.313594068191	2321.3331557989404	1393.45805	-1642.68818037117	2410.534976131462	1379.40067	-1395.9730692307376	2508.448633004925	1349.8317	-122.99132339457756	2496.450883506914	1322.84799	-211.4411528009015	2489.4860025474695	1357.26433	-280.17646917486223	2321.7193846893206	1316.86956	-1828.9401824281606	2329.4506977331584	1298.44955	-1737.7444947109607	2338.30792559652	1339.32906	-1672.7910737803504	2465.556798837749	885.61498	-822.443342842866	2424.0048993004284	490.87727000000007	-822.607446116423	2427.3268174035165	484.57568000000003	-899.2912100412682	2468.770995093918	486.0298900000001	-861.5095112087364	2457.8109019392105	885.6149800000001	-1145.0875203759992	2430.0251496290443	489.7462100000001	-1155.2007071535932	2438.119859205564	481.3441000000001	-1079.1762049394624	2477.088322289284	485.38358000000005	-1119.15673670048	2477.7152892850063	450.96723000000003	-857.73820482323	2392.882716634853	82.89007000000004	-800.404966111139	2396.0064714218574	77.88112000000005	-860.4818058045479	2485.1930578274983	448.3819700000001	-1123.9445546423094	2391.049970785378	83.37481000000007	-1186.0655619079039	2396.9268787989713	76.75007000000006	-1126.15171383061	2357.650920738346	0.9694700000000515	-839.1925686482964	2515.716373291453	1.615790000000052	-847.3459169810119	2502.4146780722776	-0.3231599999999526	-773.9506058238578	2530.075368686552	0.48474000000004946	-807.9018425643745	2394.0655611117654	3.554740000000051	-832.4727856256434	2608.453880667311	-0.6463199999999514	-793.6461597964201	2356.8464310803347	0.32316000000007067	-1153.9798673085152	2514.9342239891166	-0.32315999999992995	-1144.2424070089464	2502.324667085649	3.5547400000000744	-1217.7834042784584	2529.758188342508	1.6157900000000724	-1183.5536293917544	2393.4581229346836	3.231580000000071	-1160.0845272554907	2608.2829406431015	1.4542100000000733	-1197.1004346788832	
